solid
facet normal -0.9562523066368684 -0.16861308202478364 -0.2390630766592202
 outer loop
  vertex -54.5 3.087718699218149e-14 18.0
  vertex -50.0 3.6139460187578685e-13 0.0
  vertex -51.21324783283202 -18.640097811248918 18.0
 endloop
endfacet
facet normal 0.9562523066368692 0.1686130820247839 -0.2390630766592173
 outer loop
  vertex 50.0 -1.2246467991473532e-14 0.0
  vertex 51.21324783283202 18.640097811248925 18.0
  vertex 54.5 -1.334865011070615e-14 18.0
 endloop
endfacet
facet normal 0.956252306636869 -0.16861308202478434 -0.23906307665921728
 outer loop
  vertex 51.21324783283201 -18.64009781124894 18.0
  vertex 50.0 -1.2246467991473532e-14 0.0
  vertex 54.5 -1.334865011070615e-14 18.0
 endloop
endfacet
facet normal -0.9562523066368696 0.1686130820247855 -0.23906307665921428
 outer loop
  vertex -51.21324783283198 18.640097811249 18.0
  vertex -50.0 3.6139460187578685e-13 0.0
  vertex -54.5 3.087718699218149e-14 18.0
 endloop
endfacet
facet normal -0.9473217039849858 -0.18843400280977746 -0.2589869026496662
 outer loop
  vertex -50.0 3.6139460187578685e-13 0.0
  vertex -46.193976625564495 -19.13417161825411 0.0
  vertex -51.21324783283202 -18.640097811248918 18.0
 endloop
endfacet
facet normal 0.9473217039849832 -0.18843400280978506 -0.25898690264966984
 outer loop
  vertex 46.193976625564325 -19.13417161825452 0.0
  vertex 50.0 -1.2246467991473532e-14 0.0
  vertex 51.21324783283201 -18.64009781124894 18.0
 endloop
endfacet
facet normal 0.9473217039849836 0.18843400280978395 -0.25898690264966917
 outer loop
  vertex 50.0 -1.2246467991473532e-14 0.0
  vertex 46.19397662556436 19.13417161825444 0.0
  vertex 51.21324783283202 18.640097811248925 18.0
 endloop
endfacet
facet normal -0.9473217039849818 0.18843400280979095 -0.25898690264967134
 outer loop
  vertex -46.19397662556422 19.13417161825478 0.0
  vertex -50.0 3.6139460187578685e-13 0.0
  vertex -51.21324783283198 18.640097811249 18.0
 endloop
endfacet
facet normal -0.7995489011163031 -0.5342414956977555 -0.2744222640354411
 outer loop
  vertex -46.193976625564495 -19.13417161825411 0.0
  vertex -35.3553390593276 -35.35533905932715 0.0
  vertex -41.74942214998434 -35.031924727916355 18.0
 endloop
endfacet
facet normal 0.7995489011163 0.5342414956977598 -0.2744222640354419
 outer loop
  vertex 46.19397662556436 19.13417161825444 0.0
  vertex 35.35533905932744 35.355339059327314 0.0
  vertex 41.74942214998433 35.03192472791636 18.0
 endloop
endfacet
facet normal 0.7995489011162984 -0.5342414956977619 -0.2744222640354427
 outer loop
  vertex 35.35533905932731 -35.35533905932745 0.0
  vertex 46.193976625564325 -19.13417161825452 0.0
  vertex 41.74942214998429 -35.031924727916405 18.0
 endloop
endfacet
facet normal -0.7995489011162954 0.5342414956977658 -0.2744222640354435
 outer loop
  vertex -35.355339059327164 35.355339059327584 0.0
  vertex -46.19397662556422 19.13417161825478 0.0
  vertex -41.74942214998425 35.031924727916454 18.0
 endloop
endfacet
facet normal -0.8443998049405204 -0.4875144546860758 -0.2220779725424142
 outer loop
  vertex -51.21324783283202 -18.640097811248918 18.0
  vertex -46.193976625564495 -19.13417161825411 0.0
  vertex -41.74942214998434 -35.031924727916355 18.0
 endloop
endfacet
facet normal 0.8443998049405207 0.48751445468607635 -0.2220779725424118
 outer loop
  vertex 51.21324783283202 18.640097811248925 18.0
  vertex 46.19397662556436 19.13417161825444 0.0
  vertex 41.74942214998433 35.03192472791636 18.0
 endloop
endfacet
facet normal 0.8443998049405204 -0.4875144546860772 -0.22207797254241132
 outer loop
  vertex 41.74942214998429 -35.031924727916405 18.0
  vertex 46.193976625564325 -19.13417161825452 0.0
  vertex 51.21324783283201 -18.64009781124894 18.0
 endloop
endfacet
facet normal -0.8443998049405202 0.48751445468607807 -0.22207797254240952
 outer loop
  vertex -41.74942214998425 35.031924727916454 18.0
  vertex -46.19397662556422 19.13417161825478 0.0
  vertex -51.21324783283198 18.640097811249 18.0
 endloop
endfacet
facet normal -0.5325932628621265 -0.7970821463562641 -0.2846128393343579
 outer loop
  vertex -35.3553390593276 -35.35533905932715 0.0
  vertex -19.134171618254722 -46.19397662556424 0.0
  vertex -27.250000000000025 -47.19838450625189 18.0
 endloop
endfacet
facet normal 0.5325932628621236 0.7970821463562658 -0.2846128393343582
 outer loop
  vertex 35.35533905932744 35.355339059327314 0.0
  vertex 19.134171618254612 46.19397662556429 0.0
  vertex 27.25000000000006 47.19838450625188 18.0
 endloop
endfacet
facet normal 0.532593262862119 -0.7970821463562686 -0.2846128393343593
 outer loop
  vertex 19.134171618254296 -46.19397662556442 0.0
  vertex 35.35533905932731 -35.35533905932745 0.0
  vertex 27.249999999999964 -47.19838450625193 18.0
 endloop
endfacet
facet normal -0.5325932628621174 0.7970821463562697 -0.28461283933435905
 outer loop
  vertex -19.134171618254257 46.19397662556443 0.0
  vertex -35.355339059327164 35.355339059327584 0.0
  vertex -27.24999999999995 47.198384506251934 18.0
 endloop
endfacet
facet normal -0.6284824500716972 -0.7489962177553556 -0.20979627198796647
 outer loop
  vertex -41.74942214998434 -35.031924727916355 18.0
  vertex -35.3553390593276 -35.35533905932715 0.0
  vertex -27.250000000000025 -47.19838450625189 18.0
 endloop
endfacet
facet normal 0.6284824500716977 0.7489962177553553 -0.20979627198796538
 outer loop
  vertex 41.74942214998433 35.03192472791636 18.0
  vertex 35.35533905932744 35.355339059327314 0.0
  vertex 27.25000000000006 47.19838450625188 18.0
 endloop
endfacet
facet normal 0.6284824500716967 -0.7489962177553563 -0.20979627198796438
 outer loop
  vertex 27.249999999999964 -47.19838450625193 18.0
  vertex 35.35533905932731 -35.35533905932745 0.0
  vertex 41.74942214998429 -35.031924727916405 18.0
 endloop
endfacet
facet normal -0.6284824500716962 0.748996217755357 -0.20979627198796413
 outer loop
  vertex -27.24999999999995 47.198384506251934 18.0
  vertex -35.355339059327164 35.355339059327584 0.0
  vertex -41.74942214998425 35.031924727916454 18.0
 endloop
endfacet
facet normal 0.18672570585614673 0.9387335152456668 -0.289677230943402
 outer loop
  vertex 19.134171618254612 46.19397662556429 0.0
  vertex 1.6959507069164186e-13 50.0 0.0
  vertex 9.46382568284778 53.672022539165326 18.0
 endloop
endfacet
facet normal -0.1867257058561486 -0.9387335152456665 -0.2896772309434022
 outer loop
  vertex -19.134171618254722 -46.19397662556424 0.0
  vertex -2.312294559186364e-13 -50.0 0.0
  vertex -9.463825682847704 -53.67202253916534 18.0
 endloop
endfacet
facet normal -0.18672570585614015 0.9387335152456682 -0.28967723094340203
 outer loop
  vertex 1.6959507069164186e-13 50.0 0.0
  vertex -19.134171618254257 46.19397662556443 0.0
  vertex -9.463825682847643 53.67202253916535 18.0
 endloop
endfacet
facet normal 0.18672570585613985 -0.9387335152456681 -0.2896772309434025
 outer loop
  vertex -2.312294559186364e-13 -50.0 0.0
  vertex 19.134171618254296 -46.19397662556442 0.0
  vertex 9.463825682847684 -53.67202253916534 18.0
 endloop
endfacet
facet normal -0.3349434905241446 -0.9202496770083998 -0.20236943969245522
 outer loop
  vertex -27.250000000000025 -47.19838450625189 18.0
  vertex -19.134171618254722 -46.19397662556424 0.0
  vertex -9.463825682847704 -53.67202253916534 18.0
 endloop
endfacet
facet normal 0.3349434905241454 0.9202496770083995 -0.202369439692455
 outer loop
  vertex 27.25000000000006 47.19838450625188 18.0
  vertex 19.134171618254612 46.19397662556429 0.0
  vertex 9.46382568284778 53.672022539165326 18.0
 endloop
endfacet
facet normal -0.33494349052414324 0.9202496770084002 -0.20236943969245433
 outer loop
  vertex -9.463825682847643 53.67202253916535 18.0
  vertex -19.134171618254257 46.19397662556443 0.0
  vertex -27.24999999999995 47.198384506251934 18.0
 endloop
endfacet
facet normal 0.33494349052414374 -0.9202496770084001 -0.2023694396924544
 outer loop
  vertex 9.463825682847684 -53.67202253916534 18.0
  vertex 19.134171618254296 -46.19397662556442 0.0
  vertex 27.249999999999964 -47.19838450625193 18.0
 endloop
endfacet
facet normal 1.1034706920306785e-15 0.9798194863290673 -0.19988440211742986
 outer loop
  vertex 9.46382568284778 53.672022539165326 18.0
  vertex 1.6959507069164186e-13 50.0 0.0
  vertex -9.463825682847643 53.67202253916535 18.0
 endloop
endfacet
facet normal 0.0 -0.9798194863290673 -0.19988440211743005
 outer loop
  vertex -9.463825682847704 -53.67202253916534 18.0
  vertex -2.312294559186364e-13 -50.0 0.0
  vertex 9.463825682847684 -53.67202253916534 18.0
 endloop
endfacet
facet normal 0.0 0.0 1.0
 outer loop
  vertex 51.21324783283201 -18.64009781124894 18.0
  vertex 38.014310584322445 0.39874344863982175 18.0
  vertex 33.5213781531199 -18.948135432839543 18.0
 endloop
endfacet
facet normal 0.0 0.0 1.0
 outer loop
  vertex 54.5 -1.334865011070615e-14 18.0
  vertex 38.014310584322445 0.39874344863982175 18.0
  vertex 51.21324783283201 -18.64009781124894 18.0
 endloop
endfacet
facet normal 0.0 0.0 1.0
 outer loop
  vertex 12.678481193641495 22.937488651352087 18.0
  vertex 20.098628523210817 5.700852682786811 18.0
  vertex 32.28559646713663 18.640097811248935 18.0
 endloop
endfacet
facet normal 0.0 0.0 1.0
 outer loop
  vertex 32.28559646713663 18.640097811248935 18.0
  vertex 26.137560280106705 32.65647163505368 18.0
  vertex 12.678481193641495 22.937488651352087 18.0
 endloop
endfacet
facet normal 0.0 0.0 1.0
 outer loop
  vertex 51.21324783283202 18.640097811248925 18.0
  vertex 38.014310584322445 0.39874344863982175 18.0
  vertex 54.5 -1.334865011070615e-14 18.0
 endloop
endfacet
facet normal 0.0 0.0 1.0
 outer loop
  vertex 32.28559646713663 18.640097811248935 18.0
  vertex 38.014310584322445 0.39874344863982175 18.0
  vertex 51.21324783283202 18.640097811248925 18.0
 endloop
endfacet
facet normal 0.0 0.0 1.0
 outer loop
  vertex 0.8267587432270376 -25.038829105884226 18.0
  vertex -17.615332917238906 -20.993136288862477 18.0
  vertex -12.806505182226296 -35.436059154146584 18.0
 endloop
endfacet
facet normal 0.0 0.0 1.0
 outer loop
  vertex -7.211428130309703 -8.065977905500628 18.0
  vertex -26.140046172095452 -6.706442745913631 18.0
  vertex -17.615332917238906 -20.993136288862477 18.0
 endloop
endfacet
facet normal 0.0 0.0 1.0
 outer loop
  vertex -16.822246261329767 5.224263211324233 18.0
  vertex -26.140046172095452 -6.706442745913631 18.0
  vertex -7.211428130309703 -8.065977905500628 18.0
 endloop
endfacet
facet normal 0.0 0.0 1.0
 outer loop
  vertex 51.21324783283201 -18.64009781124894 18.0
  vertex 33.5213781531199 -18.948135432839543 18.0
  vertex 41.74942214998429 -35.031924727916405 18.0
 endloop
endfacet
facet normal 0.0 0.0 1.0
 outer loop
  vertex -54.5 3.087718699218149e-14 18.0
  vertex -36.12407542214067 6.733685931665661 18.0
  vertex -51.21324783283198 18.640097811249 18.0
 endloop
endfacet
facet normal 0.0 0.0 1.0
 outer loop
  vertex -9.463825682847643 53.67202253916535 18.0
  vertex 5.01613494459101e-14 37.2801956224979 18.0
  vertex 9.46382568284778 53.672022539165326 18.0
 endloop
endfacet
facet normal 0.0 0.0 1.0
 outer loop
  vertex -9.463825682847704 -53.67202253916534 18.0
  vertex -12.806505182226296 -35.436059154146584 18.0
  vertex -27.250000000000025 -47.19838450625189 18.0
 endloop
endfacet
facet normal 0.0 0.0 1.0
 outer loop
  vertex 27.249999999999964 -47.19838450625193 18.0
  vertex 14.300356083880246 -36.8693802653906 18.0
  vertex 9.463825682847684 -53.67202253916534 18.0
 endloop
endfacet
facet normal 0.0 0.0 1.0
 outer loop
  vertex 41.74942214998433 35.03192472791636 18.0
  vertex 32.28559646713663 18.640097811248935 18.0
  vertex 51.21324783283202 18.640097811248925 18.0
 endloop
endfacet
facet normal -0.0 0.0 1.0
 outer loop
  vertex -41.74942214998425 35.031924727916454 18.0
  vertex -24.501443142352258 29.058707949256565 18.0
  vertex -27.24999999999995 47.198384506251934 18.0
 endloop
endfacet
facet normal 0.0 -0.0 1.0
 outer loop
  vertex -41.74942214998434 -35.031924727916355 18.0
  vertex -34.506486563013 -19.91406146953476 18.0
  vertex -51.21324783283202 -18.640097811248918 18.0
 endloop
endfacet
facet normal -0.0 0.0 1.0
 outer loop
  vertex -7.211428130309703 -8.065977905500628 18.0
  vertex 11.068499391521268 -8.811043202470815 18.0
  vertex 2.2169192574308907 5.557176360748937 18.0
 endloop
endfacet
facet normal -0.0 0.0 1.0
 outer loop
  vertex -16.822246261329767 5.224263211324233 18.0
  vertex -7.211428130309703 -8.065977905500628 18.0
  vertex 2.2169192574308907 5.557176360748937 18.0
 endloop
endfacet
facet normal -0.0 0.0 1.0
 outer loop
  vertex -12.806505182226296 -35.436059154146584 18.0
  vertex -8.881784197001252e-15 -42.39347428194624 18.0
  vertex 0.8267587432270376 -25.038829105884226 18.0
 endloop
endfacet
facet normal 0.0 0.0 1.0
 outer loop
  vertex -9.31819297191704 22.028947647449304 18.0
  vertex -16.822246261329767 5.224263211324233 18.0
  vertex 2.2169192574308907 5.557176360748937 18.0
 endloop
endfacet
facet normal 0.0 0.0 1.0
 outer loop
  vertex 2.2169192574308907 5.557176360748937 18.0
  vertex 20.098628523210817 5.700852682786811 18.0
  vertex 12.678481193641495 22.937488651352087 18.0
 endloop
endfacet
facet normal 0.0 0.0 1.0
 outer loop
  vertex -7.211428130309703 -8.065977905500628 18.0
  vertex -17.615332917238906 -20.993136288862477 18.0
  vertex 0.8267587432270376 -25.038829105884226 18.0
 endloop
endfacet
facet normal 0.0 0.0 1.0
 outer loop
  vertex 38.014310584322445 0.39874344863982175 18.0
  vertex 25.317597587795156 -7.266920454301979 18.0
  vertex 33.5213781531199 -18.948135432839543 18.0
 endloop
endfacet
facet normal -0.0 0.0 1.0
 outer loop
  vertex -9.31819297191704 22.028947647449304 18.0
  vertex 2.2169192574308907 5.557176360748937 18.0
  vertex 12.678481193641495 22.937488651352087 18.0
 endloop
endfacet
facet normal 0.0 -0.0 1.0
 outer loop
  vertex 11.068499391521268 -8.811043202470815 18.0
  vertex 20.098628523210817 5.700852682786811 18.0
  vertex 2.2169192574308907 5.557176360748937 18.0
 endloop
endfacet
facet normal 0.0 0.0 1.0
 outer loop
  vertex 12.678481193641495 22.937488651352087 18.0
  vertex 26.137560280106705 32.65647163505368 18.0
  vertex 14.499422149984355 39.83683495222204 18.0
 endloop
endfacet
facet normal 0.0 0.0 1.0
 outer loop
  vertex 5.01613494459101e-14 37.2801956224979 18.0
  vertex -9.31819297191704 22.028947647449304 18.0
  vertex 12.678481193641495 22.937488651352087 18.0
 endloop
endfacet
facet normal 0.0 0.0 1.0
 outer loop
  vertex 5.01613494459101e-14 37.2801956224979 18.0
  vertex -14.299049807861358 38.821945513804806 18.0
  vertex -9.31819297191704 22.028947647449304 18.0
 endloop
endfacet
facet normal 0.0 0.0 1.0
 outer loop
  vertex -9.31819297191704 22.028947647449304 18.0
  vertex -14.299049807861358 38.821945513804806 18.0
  vertex -24.501443142352258 29.058707949256565 18.0
 endloop
endfacet
facet normal 0.0 0.0 1.0
 outer loop
  vertex -36.12407542214067 6.733685931665661 18.0
  vertex -26.140046172095452 -6.706442745913631 18.0
  vertex -16.822246261329767 5.224263211324233 18.0
 endloop
endfacet
facet normal 0.0 0.0 1.0
 outer loop
  vertex -16.822246261329767 5.224263211324233 18.0
  vertex -24.702201796860535 16.360944690540883 18.0
  vertex -36.12407542214067 6.733685931665661 18.0
 endloop
endfacet
facet normal -0.0 0.0 1.0
 outer loop
  vertex 20.098628523210817 5.700852682786811 18.0
  vertex 38.014310584322445 0.39874344863982175 18.0
  vertex 32.28559646713663 18.640097811248935 18.0
 endloop
endfacet
facet normal 0.0 0.0 1.0
 outer loop
  vertex 0.8267587432270376 -25.038829105884226 18.0
  vertex -8.881784197001252e-15 -42.39347428194624 18.0
  vertex 14.300356083880246 -36.8693802653906 18.0
 endloop
endfacet
facet normal 0.0 0.0 1.0
 outer loop
  vertex -9.31819297191704 22.028947647449304 18.0
  vertex -24.702201796860535 16.360944690540883 18.0
  vertex -16.822246261329767 5.224263211324233 18.0
 endloop
endfacet
facet normal -0.0 0.0 1.0
 outer loop
  vertex 5.01613494459101e-14 37.2801956224979 18.0
  vertex 12.678481193641495 22.937488651352087 18.0
  vertex 14.499422149984355 39.83683495222204 18.0
 endloop
endfacet
facet normal 0.0 0.0 1.0
 outer loop
  vertex -7.211428130309703 -8.065977905500628 18.0
  vertex 0.8267587432270376 -25.038829105884226 18.0
  vertex 11.068499391521268 -8.811043202470815 18.0
 endloop
endfacet
facet normal 0.0 0.0 1.0
 outer loop
  vertex -24.501443142352258 29.058707949256565 18.0
  vertex -24.702201796860535 16.360944690540883 18.0
  vertex -9.31819297191704 22.028947647449304 18.0
 endloop
endfacet
facet normal 0.0 -0.0 1.0
 outer loop
  vertex -27.250000000000025 -47.19838450625189 18.0
  vertex -27.129099688278984 -32.2773022222109 18.0
  vertex -41.74942214998434 -35.031924727916355 18.0
 endloop
endfacet
facet normal 0.0 0.0 1.0
 outer loop
  vertex -51.21324783283198 18.640097811249 18.0
  vertex -36.71382568284767 21.196737140973145 18.0
  vertex -41.74942214998425 35.031924727916454 18.0
 endloop
endfacet
facet normal -0.0 0.0 1.0
 outer loop
  vertex -54.5 3.087718699218149e-14 18.0
  vertex -41.3892321642775 -7.361192456065369 18.0
  vertex -36.12407542214067 6.733685931665661 18.0
 endloop
endfacet
facet normal 0.0 -0.0 1.0
 outer loop
  vertex -9.463825682847704 -53.67202253916534 18.0
  vertex -8.881784197001252e-15 -42.39347428194624 18.0
  vertex -12.806505182226296 -35.436059154146584 18.0
 endloop
endfacet
facet normal 0.0 0.0 1.0
 outer loop
  vertex 41.74942214998429 -35.031924727916405 18.0
  vertex 27.109477382035408 -32.309380355774834 18.0
  vertex 27.249999999999964 -47.19838450625193 18.0
 endloop
endfacet
facet normal -0.0 0.0 1.0
 outer loop
  vertex -27.24999999999995 47.198384506251934 18.0
  vertex -14.299049807861358 38.821945513804806 18.0
  vertex -9.463825682847643 53.67202253916535 18.0
 endloop
endfacet
facet normal 0.0 0.0 1.0
 outer loop
  vertex -9.463825682847643 53.67202253916535 18.0
  vertex -14.299049807861358 38.821945513804806 18.0
  vertex 5.01613494459101e-14 37.2801956224979 18.0
 endloop
endfacet
facet normal 0.0 0.0 1.0
 outer loop
  vertex 9.46382568284778 53.672022539165326 18.0
  vertex 14.499422149984355 39.83683495222204 18.0
  vertex 27.25000000000006 47.19838450625188 18.0
 endloop
endfacet
facet normal 0.0 0.0 1.0
 outer loop
  vertex 27.249999999999964 -47.19838450625193 18.0
  vertex 27.109477382035408 -32.309380355774834 18.0
  vertex 14.300356083880246 -36.8693802653906 18.0
 endloop
endfacet
facet normal 0.0 0.0 1.0
 outer loop
  vertex 33.5213781531199 -18.948135432839543 18.0
  vertex 27.109477382035408 -32.309380355774834 18.0
  vertex 41.74942214998429 -35.031924727916405 18.0
 endloop
endfacet
facet normal 0.0 0.0 1.0
 outer loop
  vertex 5.01613494459101e-14 37.2801956224979 18.0
  vertex 14.499422149984355 39.83683495222204 18.0
  vertex 9.46382568284778 53.672022539165326 18.0
 endloop
endfacet
facet normal 0.0 0.0 1.0
 outer loop
  vertex -36.12407542214067 6.733685931665661 18.0
  vertex -36.71382568284767 21.196737140973145 18.0
  vertex -51.21324783283198 18.640097811249 18.0
 endloop
endfacet
facet normal 0.0 -0.0 1.0
 outer loop
  vertex -51.21324783283202 -18.640097811248918 18.0
  vertex -41.3892321642775 -7.361192456065369 18.0
  vertex -54.5 3.087718699218149e-14 18.0
 endloop
endfacet
facet normal 0.0 0.0 1.0
 outer loop
  vertex -41.74942214998434 -35.031924727916355 18.0
  vertex -27.129099688278984 -32.2773022222109 18.0
  vertex -34.506486563013 -19.91406146953476 18.0
 endloop
endfacet
facet normal 0.0 0.0 1.0
 outer loop
  vertex 27.25000000000006 47.19838450625188 18.0
  vertex 26.137560280106705 32.65647163505368 18.0
  vertex 41.74942214998433 35.03192472791636 18.0
 endloop
endfacet
facet normal 0.0 0.0 1.0
 outer loop
  vertex 41.74942214998433 35.03192472791636 18.0
  vertex 26.137560280106705 32.65647163505368 18.0
  vertex 32.28559646713663 18.640097811248935 18.0
 endloop
endfacet
facet normal 0.0 -0.0 1.0
 outer loop
  vertex -24.501443142352258 29.058707949256565 18.0
  vertex -14.299049807861358 38.821945513804806 18.0
  vertex -27.24999999999995 47.198384506251934 18.0
 endloop
endfacet
facet normal 0.0 0.0 1.0
 outer loop
  vertex -41.74942214998425 35.031924727916454 18.0
  vertex -36.71382568284767 21.196737140973145 18.0
  vertex -24.501443142352258 29.058707949256565 18.0
 endloop
endfacet
facet normal 0.0 0.0 1.0
 outer loop
  vertex 9.463825682847684 -53.67202253916534 18.0
  vertex -8.881784197001252e-15 -42.39347428194624 18.0
  vertex -9.463825682847704 -53.67202253916534 18.0
 endloop
endfacet
facet normal 0.0 0.0 1.0
 outer loop
  vertex 14.300356083880246 -36.8693802653906 18.0
  vertex -8.881784197001252e-15 -42.39347428194624 18.0
  vertex 9.463825682847684 -53.67202253916534 18.0
 endloop
endfacet
facet normal 0.0 0.0 1.0
 outer loop
  vertex -34.506486563013 -19.91406146953476 18.0
  vertex -41.3892321642775 -7.361192456065369 18.0
  vertex -51.21324783283202 -18.640097811248918 18.0
 endloop
endfacet
facet normal 0.0 0.0 1.0
 outer loop
  vertex -12.806505182226296 -35.436059154146584 18.0
  vertex -27.129099688278984 -32.2773022222109 18.0
  vertex -27.250000000000025 -47.19838450625189 18.0
 endloop
endfacet
facet normal 0.0 0.0 1.0
 outer loop
  vertex -17.615332917238906 -20.993136288862477 18.0
  vertex -26.140046172095452 -6.706442745913631 18.0
  vertex -34.506486563013 -19.91406146953476 18.0
 endloop
endfacet
facet normal 0.0 0.0 1.0
 outer loop
  vertex 25.317597587795156 -7.266920454301979 18.0
  vertex 18.21804742897966 -22.400223834017783 18.0
  vertex 33.5213781531199 -18.948135432839543 18.0
 endloop
endfacet
facet normal 0.0 0.0 1.0
 outer loop
  vertex 11.068499391521268 -8.811043202470815 18.0
  vertex 25.317597587795156 -7.266920454301979 18.0
  vertex 20.098628523210817 5.700852682786811 18.0
 endloop
endfacet
facet normal -0.0 0.0 1.0
 outer loop
  vertex 11.068499391521268 -8.811043202470815 18.0
  vertex 18.21804742897966 -22.400223834017783 18.0
  vertex 25.317597587795156 -7.266920454301979 18.0
 endloop
endfacet
facet normal 0.0 0.0 1.0
 outer loop
  vertex 20.098628523210817 5.700852682786811 18.0
  vertex 25.317597587795156 -7.266920454301979 18.0
  vertex 38.014310584322445 0.39874344863982175 18.0
 endloop
endfacet
facet normal 0.0 0.0 1.0
 outer loop
  vertex -17.615332917238906 -20.993136288862477 18.0
  vertex -27.129099688278984 -32.2773022222109 18.0
  vertex -12.806505182226296 -35.436059154146584 18.0
 endloop
endfacet
facet normal 0.0 0.0 1.0
 outer loop
  vertex -34.506486563013 -19.91406146953476 18.0
  vertex -27.129099688278984 -32.2773022222109 18.0
  vertex -17.615332917238906 -20.993136288862477 18.0
 endloop
endfacet
facet normal -0.0 0.0 1.0
 outer loop
  vertex 14.499422149984355 39.83683495222204 18.0
  vertex 26.137560280106705 32.65647163505368 18.0
  vertex 27.25000000000006 47.19838450625188 18.0
 endloop
endfacet
facet normal 0.0 0.0 1.0
 outer loop
  vertex -41.3892321642775 -7.361192456065369 18.0
  vertex -26.140046172095452 -6.706442745913631 18.0
  vertex -36.12407542214067 6.733685931665661 18.0
 endloop
endfacet
facet normal 0.0 -0.0 1.0
 outer loop
  vertex -34.506486563013 -19.91406146953476 18.0
  vertex -26.140046172095452 -6.706442745913631 18.0
  vertex -41.3892321642775 -7.361192456065369 18.0
 endloop
endfacet
facet normal 0.0 -0.0 1.0
 outer loop
  vertex -36.12407542214067 6.733685931665661 18.0
  vertex -24.702201796860535 16.360944690540883 18.0
  vertex -36.71382568284767 21.196737140973145 18.0
 endloop
endfacet
facet normal 0.0 0.0 1.0
 outer loop
  vertex 33.5213781531199 -18.948135432839543 18.0
  vertex 18.21804742897966 -22.400223834017783 18.0
  vertex 27.109477382035408 -32.309380355774834 18.0
 endloop
endfacet
facet normal 0.0 -0.0 1.0
 outer loop
  vertex 14.300356083880246 -36.8693802653906 18.0
  vertex 18.21804742897966 -22.400223834017783 18.0
  vertex 0.8267587432270376 -25.038829105884226 18.0
 endloop
endfacet
facet normal 0.0 0.0 1.0
 outer loop
  vertex 0.8267587432270376 -25.038829105884226 18.0
  vertex 18.21804742897966 -22.400223834017783 18.0
  vertex 11.068499391521268 -8.811043202470815 18.0
 endloop
endfacet
facet normal -0.0 0.0 1.0
 outer loop
  vertex -36.71382568284767 21.196737140973145 18.0
  vertex -24.702201796860535 16.360944690540883 18.0
  vertex -24.501443142352258 29.058707949256565 18.0
 endloop
endfacet
facet normal 0.0 0.0 1.0
 outer loop
  vertex 27.109477382035408 -32.309380355774834 18.0
  vertex 18.21804742897966 -22.400223834017783 18.0
  vertex 14.300356083880246 -36.8693802653906 18.0
 endloop
endfacet
facet normal 0.0 -0.0 -1.0
 outer loop
  vertex 26.72671475943578 17.858219864017368 0.0
  vertex 29.8403122103961 -3.309505272915513 0.0
  vertex 12.555878234437778 12.774923031535288 0.0
 endloop
endfacet
facet normal 0.0 0.0 -1.0
 outer loop
  vertex 29.8403122103961 -3.309505272915513 0.0
  vertex 10.03613431101314 -2.0676982014445704 0.0
  vertex 12.555878234437778 12.774923031535288 0.0
 endloop
endfacet
facet normal 0.0 0.0 -1.0
 outer loop
  vertex 29.8403122103961 -3.309505272915513 0.0
  vertex 26.72671475943578 17.858219864017368 0.0
  vertex 38.19025089884906 8.420721552339074 0.0
 endloop
endfacet
facet normal 0.0 0.0 -1.0
 outer loop
  vertex -7.397116867516459 37.18781775593655 0.0
  vertex 7.143438172843716 31.706476751246388 0.0
  vertex -3.3011568601868695 16.271484629436117 0.0
 endloop
endfacet
facet normal 0.0 0.0 -1.0
 outer loop
  vertex -18.902809087919252 27.34259676585586 0.0
  vertex -7.397116867516459 37.18781775593655 0.0
  vertex -3.3011568601868695 16.271484629436117 0.0
 endloop
endfacet
facet normal -0.0 0.0 -1.0
 outer loop
  vertex 35.35533905932731 -35.35533905932745 0.0
  vertex 19.134171618254296 -46.19397662556442 0.0
  vertex 17.858219864017276 -26.726714759435733 0.0
 endloop
endfacet
facet normal 0.0 0.0 -1.0
 outer loop
  vertex -35.3553390593276 -35.35533905932715 0.0
  vertex -46.193976625564495 -19.13417161825411 0.0
  vertex -29.18917075084788 -19.432309948114806 0.0
 endloop
endfacet
facet normal 0.0 0.0 -1.0
 outer loop
  vertex 50.0 -1.2246467991473532e-14 0.0
  vertex 46.193976625564325 -19.13417161825452 0.0
  vertex 29.8403122103961 -3.309505272915513 0.0
 endloop
endfacet
facet normal 0.0 0.0 -1.0
 outer loop
  vertex -2.312294559186364e-13 -50.0 0.0
  vertex -19.134171618254722 -46.19397662556424 0.0
  vertex -6.270972879468738 -31.526309611002524 0.0
 endloop
endfacet
facet normal 0.0 0.0 -1.0
 outer loop
  vertex 1.6959507069164186e-13 50.0 0.0
  vertex 19.134171618254612 46.19397662556429 0.0
  vertex 7.143438172843716 31.706476751246388 0.0
 endloop
endfacet
facet normal 0.0 0.0 -1.0
 outer loop
  vertex -35.355339059327164 35.355339059327584 0.0
  vertex -19.134171618254257 46.19397662556443 0.0
  vertex -18.902809087919252 27.34259676585586 0.0
 endloop
endfacet
facet normal 0.0 -0.0 -1.0
 outer loop
  vertex 35.35533905932744 35.355339059327314 0.0
  vertex 46.19397662556436 19.13417161825444 0.0
  vertex 26.72671475943578 17.858219864017368 0.0
 endloop
endfacet
facet normal 0.0 0.0 -1.0
 outer loop
  vertex -50.0 3.6139460187578685e-13 0.0
  vertex -46.19397662556422 19.13417161825478 0.0
  vertex -33.44797748404002 6.547359856367272 0.0
 endloop
endfacet
facet normal 0.0 0.0 -1.0
 outer loop
  vertex 10.03613431101314 -2.0676982014445704 0.0
  vertex 29.8403122103961 -3.309505272915513 0.0
  vertex 18.282962919261937 -14.086275441726247 0.0
 endloop
endfacet
facet normal 0.0 0.0 -1.0
 outer loop
  vertex -8.340476763444713 -3.661337486921818 0.0
  vertex -3.3011568601868695 16.271484629436117 0.0
  vertex 10.03613431101314 -2.0676982014445704 0.0
 endloop
endfacet
facet normal 0.0 0.0 -1.0
 outer loop
  vertex -3.3011568601868695 16.271484629436117 0.0
  vertex 7.143438172843716 31.706476751246388 0.0
  vertex 12.555878234437778 12.774923031535288 0.0
 endloop
endfacet
facet normal 0.0 0.0 -1.0
 outer loop
  vertex 12.555878234437778 12.774923031535288 0.0
  vertex 7.143438172843716 31.706476751246388 0.0
  vertex 20.4351364390433 29.563079221956535 0.0
 endloop
endfacet
facet normal 0.0 0.0 -1.0
 outer loop
  vertex 3.480013684433436 -18.410505673384073 0.0
  vertex 17.858219864017276 -26.726714759435733 0.0
  vertex 7.397116867516458 -37.18781775593649 0.0
 endloop
endfacet
facet normal 0.0 0.0 -1.0
 outer loop
  vertex -6.270972879468738 -31.526309611002524 0.0
  vertex 3.480013684433436 -18.410505673384073 0.0
  vertex 7.397116867516458 -37.18781775593649 0.0
 endloop
endfacet
facet normal 0.0 -0.0 -1.0
 outer loop
  vertex -18.902809087919252 27.34259676585586 0.0
  vertex -3.3011568601868695 16.271484629436117 0.0
  vertex -19.850137669457233 10.322222762312302 0.0
 endloop
endfacet
facet normal -0.0 0.0 -1.0
 outer loop
  vertex 26.72671475943578 17.858219864017368 0.0
  vertex 12.555878234437778 12.774923031535288 0.0
  vertex 20.4351364390433 29.563079221956535 0.0
 endloop
endfacet
facet normal 0.0 0.0 -1.0
 outer loop
  vertex -8.340476763444713 -3.661337486921818 0.0
  vertex 10.03613431101314 -2.0676982014445704 0.0
  vertex 3.480013684433436 -18.410505673384073 0.0
 endloop
endfacet
facet normal 0.0 0.0 -1.0
 outer loop
  vertex -19.850137669457233 10.322222762312302 0.0
  vertex -3.3011568601868695 16.271484629436117 0.0
  vertex -8.340476763444713 -3.661337486921818 0.0
 endloop
endfacet
facet normal 0.0 0.0 -1.0
 outer loop
  vertex -29.18917075084788 -19.432309948114806 0.0
  vertex -46.193976625564495 -19.13417161825411 0.0
  vertex -36.584588195793245 -7.337933711982821 0.0
 endloop
endfacet
facet normal 0.0 -0.0 -1.0
 outer loop
  vertex 17.858219864017276 -26.726714759435733 0.0
  vertex 19.134171618254296 -46.19397662556442 0.0
  vertex 7.397116867516458 -37.18781775593649 0.0
 endloop
endfacet
facet normal -0.0 0.0 -1.0
 outer loop
  vertex 50.0 -1.2246467991473532e-14 0.0
  vertex 29.8403122103961 -3.309505272915513 0.0
  vertex 38.19025089884906 8.420721552339074 0.0
 endloop
endfacet
facet normal 0.0 0.0 -1.0
 outer loop
  vertex -46.19397662556422 19.13417161825478 0.0
  vertex -35.355339059327164 35.355339059327584 0.0
  vertex -31.52630961100248 21.065206614502006 0.0
 endloop
endfacet
facet normal 0.0 0.0 -1.0
 outer loop
  vertex -19.134171618254722 -46.19397662556424 0.0
  vertex -35.3553390593276 -35.35533905932715 0.0
  vertex -21.06520661450198 -31.526309611002457 0.0
 endloop
endfacet
facet normal 0.0 0.0 -1.0
 outer loop
  vertex -2.312294559186364e-13 -50.0 0.0
  vertex -6.270972879468738 -31.526309611002524 0.0
  vertex 7.397116867516458 -37.18781775593649 0.0
 endloop
endfacet
facet normal 0.0 0.0 -1.0
 outer loop
  vertex 35.35533905932731 -35.35533905932745 0.0
  vertex 17.858219864017276 -26.726714759435733 0.0
  vertex 30.200134526449723 -19.916953301451347 0.0
 endloop
endfacet
facet normal 0.0 -0.0 -1.0
 outer loop
  vertex 46.19397662556436 19.13417161825444 0.0
  vertex 50.0 -1.2246467991473532e-14 0.0
  vertex 38.19025089884906 8.420721552339074 0.0
 endloop
endfacet
facet normal -0.0 0.0 -1.0
 outer loop
  vertex 19.134171618254296 -46.19397662556442 0.0
  vertex -2.312294559186364e-13 -50.0 0.0
  vertex 7.397116867516458 -37.18781775593649 0.0
 endloop
endfacet
facet normal 0.0 0.0 -1.0
 outer loop
  vertex 46.193976625564325 -19.13417161825452 0.0
  vertex 35.35533905932731 -35.35533905932745 0.0
  vertex 30.200134526449723 -19.916953301451347 0.0
 endloop
endfacet
facet normal 0.0 0.0 -1.0
 outer loop
  vertex -18.902809087919252 27.34259676585586 0.0
  vertex -19.134171618254257 46.19397662556443 0.0
  vertex -7.397116867516459 37.18781775593655 0.0
 endloop
endfacet
facet normal 0.0 0.0 -1.0
 outer loop
  vertex -35.355339059327164 35.355339059327584 0.0
  vertex -18.902809087919252 27.34259676585586 0.0
  vertex -31.52630961100248 21.065206614502006 0.0
 endloop
endfacet
facet normal 0.0 0.0 -1.0
 outer loop
  vertex 19.134171618254612 46.19397662556429 0.0
  vertex 35.35533905932744 35.355339059327314 0.0
  vertex 20.4351364390433 29.563079221956535 0.0
 endloop
endfacet
facet normal 0.0 0.0 -1.0
 outer loop
  vertex 35.35533905932744 35.355339059327314 0.0
  vertex 26.72671475943578 17.858219864017368 0.0
  vertex 20.4351364390433 29.563079221956535 0.0
 endloop
endfacet
facet normal 0.0 0.0 -1.0
 outer loop
  vertex -19.134171618254257 46.19397662556443 0.0
  vertex 1.6959507069164186e-13 50.0 0.0
  vertex -7.397116867516459 37.18781775593655 0.0
 endloop
endfacet
facet normal 0.0 -0.0 -1.0
 outer loop
  vertex 1.6959507069164186e-13 50.0 0.0
  vertex 7.143438172843716 31.706476751246388 0.0
  vertex -7.397116867516459 37.18781775593655 0.0
 endloop
endfacet
facet normal -0.0 0.0 -1.0
 outer loop
  vertex -6.270972879468738 -31.526309611002524 0.0
  vertex -19.134171618254722 -46.19397662556424 0.0
  vertex -21.06520661450198 -31.526309611002457 0.0
 endloop
endfacet
facet normal 0.0 0.0 -1.0
 outer loop
  vertex 29.8403122103961 -3.309505272915513 0.0
  vertex 46.193976625564325 -19.13417161825452 0.0
  vertex 30.200134526449723 -19.916953301451347 0.0
 endloop
endfacet
facet normal 0.0 0.0 -1.0
 outer loop
  vertex -46.193976625564495 -19.13417161825411 0.0
  vertex -50.0 3.6139460187578685e-13 0.0
  vertex -36.584588195793245 -7.337933711982821 0.0
 endloop
endfacet
facet normal 0.0 0.0 -1.0
 outer loop
  vertex -35.3553390593276 -35.35533905932715 0.0
  vertex -29.18917075084788 -19.432309948114806 0.0
  vertex -21.06520661450198 -31.526309611002457 0.0
 endloop
endfacet
facet normal 0.0 0.0 -1.0
 outer loop
  vertex 26.72671475943578 17.858219864017368 0.0
  vertex 46.19397662556436 19.13417161825444 0.0
  vertex 38.19025089884906 8.420721552339074 0.0
 endloop
endfacet
facet normal 0.0 0.0 -1.0
 outer loop
  vertex 7.143438172843716 31.706476751246388 0.0
  vertex 19.134171618254612 46.19397662556429 0.0
  vertex 20.4351364390433 29.563079221956535 0.0
 endloop
endfacet
facet normal 0.0 0.0 -1.0
 outer loop
  vertex -50.0 3.6139460187578685e-13 0.0
  vertex -33.44797748404002 6.547359856367272 0.0
  vertex -36.584588195793245 -7.337933711982821 0.0
 endloop
endfacet
facet normal 0.0 0.0 -1.0
 outer loop
  vertex -33.44797748404002 6.547359856367272 0.0
  vertex -46.19397662556422 19.13417161825478 0.0
  vertex -31.52630961100248 21.065206614502006 0.0
 endloop
endfacet
facet normal 0.0 0.0 -1.0
 outer loop
  vertex 10.03613431101314 -2.0676982014445704 0.0
  vertex -3.3011568601868695 16.271484629436117 0.0
  vertex 12.555878234437778 12.774923031535288 0.0
 endloop
endfacet
facet normal 0.0 -0.0 -1.0
 outer loop
  vertex -19.850137669457233 10.322222762312302 0.0
  vertex -8.340476763444713 -3.661337486921818 0.0
  vertex -23.309946385852086 -5.365123420347146 0.0
 endloop
endfacet
facet normal 0.0 0.0 -1.0
 outer loop
  vertex 17.858219864017276 -26.726714759435733 0.0
  vertex 3.480013684433436 -18.410505673384073 0.0
  vertex 18.282962919261937 -14.086275441726247 0.0
 endloop
endfacet
facet normal 0.0 0.0 -1.0
 outer loop
  vertex 3.480013684433436 -18.410505673384073 0.0
  vertex 10.03613431101314 -2.0676982014445704 0.0
  vertex 18.282962919261937 -14.086275441726247 0.0
 endloop
endfacet
facet normal 0.0 0.0 -1.0
 outer loop
  vertex -18.902809087919252 27.34259676585586 0.0
  vertex -19.850137669457233 10.322222762312302 0.0
  vertex -31.52630961100248 21.065206614502006 0.0
 endloop
endfacet
facet normal -0.0 0.0 -1.0
 outer loop
  vertex -19.850137669457233 10.322222762312302 0.0
  vertex -33.44797748404002 6.547359856367272 0.0
  vertex -31.52630961100248 21.065206614502006 0.0
 endloop
endfacet
facet normal 0.0 0.0 -1.0
 outer loop
  vertex -8.340476763444713 -3.661337486921818 0.0
  vertex -12.447327451529425 -18.628741993743013 0.0
  vertex -23.309946385852086 -5.365123420347146 0.0
 endloop
endfacet
facet normal -0.0 0.0 -1.0
 outer loop
  vertex -12.447327451529425 -18.628741993743013 0.0
  vertex -29.18917075084788 -19.432309948114806 0.0
  vertex -23.309946385852086 -5.365123420347146 0.0
 endloop
endfacet
facet normal 0.0 0.0 -1.0
 outer loop
  vertex -33.44797748404002 6.547359856367272 0.0
  vertex -19.850137669457233 10.322222762312302 0.0
  vertex -23.309946385852086 -5.365123420347146 0.0
 endloop
endfacet
facet normal 0.0 -0.0 -1.0
 outer loop
  vertex -8.340476763444713 -3.661337486921818 0.0
  vertex 3.480013684433436 -18.410505673384073 0.0
  vertex -12.447327451529425 -18.628741993743013 0.0
 endloop
endfacet
facet normal 0.0 0.0 -1.0
 outer loop
  vertex 3.480013684433436 -18.410505673384073 0.0
  vertex -6.270972879468738 -31.526309611002524 0.0
  vertex -12.447327451529425 -18.628741993743013 0.0
 endloop
endfacet
facet normal 0.0 0.0 -1.0
 outer loop
  vertex -21.06520661450198 -31.526309611002457 0.0
  vertex -29.18917075084788 -19.432309948114806 0.0
  vertex -12.447327451529425 -18.628741993743013 0.0
 endloop
endfacet
facet normal 0.0 0.0 -1.0
 outer loop
  vertex -6.270972879468738 -31.526309611002524 0.0
  vertex -21.06520661450198 -31.526309611002457 0.0
  vertex -12.447327451529425 -18.628741993743013 0.0
 endloop
endfacet
facet normal 0.0 -0.0 -1.0
 outer loop
  vertex 29.8403122103961 -3.309505272915513 0.0
  vertex 30.200134526449723 -19.916953301451347 0.0
  vertex 18.282962919261937 -14.086275441726247 0.0
 endloop
endfacet
facet normal -0.0 0.0 -1.0
 outer loop
  vertex 30.200134526449723 -19.916953301451347 0.0
  vertex 17.858219864017276 -26.726714759435733 0.0
  vertex 18.282962919261937 -14.086275441726247 0.0
 endloop
endfacet
facet normal 0.0 0.0 -1.0
 outer loop
  vertex -29.18917075084788 -19.432309948114806 0.0
  vertex -36.584588195793245 -7.337933711982821 0.0
  vertex -23.309946385852086 -5.365123420347146 0.0
 endloop
endfacet
facet normal 0.0 0.0 -1.0
 outer loop
  vertex -36.584588195793245 -7.337933711982821 0.0
  vertex -33.44797748404002 6.547359856367272 0.0
  vertex -23.309946385852086 -5.365123420347146 0.0
 endloop
endfacet
endsolid
